<svg xmlns="http://www.w3.org/2000/svg" version="1.0" viewBox="0 0 512 512" fill="#FFFFFF"><path d="M43.1 11.6c-2 2.5-2.1 4-2.1 21V51l-13.2-.6c-12.7-.6-13.4-.5-16.1 1.5L9 54.1v170.8c0 170.4 0 170.8 2 172.6 1.8 1.6 4.8 2 24.8 2.6 45.5 1.5 83.7 7.7 127.5 20.5l15.7 4.7v4.9c0 9 3.6 13.8 11.5 15.2 8.1 1.5 10.8 7.8 6.2 14-5.3 7-4.4 11.7 3.6 20.3 3.3 3.5 7.3 7.1 8.8 7.9 4.3 2.2 9.1 1.7 13.5-1.3 2.1-1.4 5.1-2.6 6.7-2.6 3.4 0 7.7 3.9 7.7 7 0 4.1 2.7 9.1 5.9 10.7 4.2 2.2 22 2.2 26.2 0 3.2-1.6 5.9-6.6 5.9-10.7 0-3.3 4-6.7 7.8-6.7 1.7 0 4.8 1.1 6.8 2.5 4.2 2.8 9.1 3.2 13.3 1.1 1.5-.8 5.5-4.4 8.8-7.9 8-8.6 8.9-13.3 3.7-20.4-4.7-6.3-2-12.4 6.1-13.9 8-1.4 11.5-6 11.5-15.2v-4.9l15.8-4.7c43.7-12.8 81.9-19 127.4-20.5 20-.6 23-1 24.8-2.6 2-1.8 2-2.2 2-172.6V54.1l-2.7-2.2c-2.7-2-3.4-2.1-16-1.5L471 51V32.6c0-17.3-.1-18.5-2.2-21.1l-2.2-2.8-15 .6c-57.1 2.4-125.3 26.9-166 59.7-7.2 5.9-20.5 19.2-26.4 26.5l-3.2 4-3.2-4c-19.8-24.6-48.1-44.8-84.3-60.3C131.4 19.4 86.6 9 54.8 9c-9.2 0-9.7.1-11.7 2.6zM88 27c44.6 7.3 89.1 24.6 120.4 46.9 11.1 7.8 26.8 23.1 33.7 32.6 9.6 13.2 10.8 14.5 13.9 14.5 3.1 0 4.3-1.3 13.9-14.5 6.9-9.5 22.6-24.8 33.7-32.6 36.8-26.2 95-46.4 142.7-49.6l9.7-.6v323.1l-6.7.7c-23.3 2.1-38.8 4.8-58.8 10-21.7 5.6-47.7 15.4-64 23.8-3.3 1.8-6.3 3.3-6.7 3.5-.4.2-1.4-1.2-2.1-3-.8-1.8-4.7-6.5-8.6-10.3-6.8-6.7-7.4-7-11.9-7-3.5 0-5.8.8-8.9 2.9-6.7 4.5-11.9 2.2-13.4-6-.7-3.7-1.8-5.7-4.4-8.1L267 350h-22l-3.5 3.2c-2.6 2.5-3.7 4.5-4.4 8.2-1.5 8.2-6.7 10.5-13.4 6-3.1-2.1-5.4-2.9-8.9-2.9-4.5 0-5.1.3-11.9 7-3.9 3.8-7.7 8.5-8.5 10.2-.8 1.8-1.7 3.3-1.9 3.3-.3 0-2.9-1.3-5.8-3-13.7-7.7-43-18.7-65.2-24.5-20-5.2-35.5-7.9-58.7-10l-6.8-.7V23.7l9.8.6c5.3.4 15.3 1.6 22.2 2.7zM38.8 65.6l2.2.6v290.9l2.5 2.4c2.1 2.2 3.3 2.5 9.7 2.5 25.8 0 69.3 9.3 100.7 21.6 17.3 6.8 43.3 20.1 42.8 21.9-.2.5-2.1 1.4-4.3 1.8-2.1.5-5.3 1.6-7 2.4-3 1.4-3.8 1.3-14.4-2.1-14.1-4.6-39.5-10.9-56.5-14-25-4.7-63-8.6-82.7-8.6H23V65h6.8c3.7 0 7.7.3 9 .6zM489 225v160h-8.7c-19.8 0-57.8 3.9-82.8 8.6-17 3.1-42.4 9.4-56.6 14-10.7 3.4-11.4 3.5-14 2-1.5-.9-3.6-1.6-4.8-1.6-2.2 0-7.1-2-7.1-2.9.1-1.9 28.5-15.9 45.6-22.5 29.6-11.4 73.3-20.6 98.2-20.6 6.4 0 7.6-.3 9.7-2.5l2.5-2.4V211.6c0-137.7.1-145.5 1.8-145.9.9-.3 5-.5 9-.6l7.2-.1v160zM260.6 366.7c2.6 8.9 8.5 14.8 16.8 17 5.7 1.5 10.3.9 15.9-1.9l3.7-1.9 2.5 2.8c3 3.4 3 3 .4 8.8-5.3 11.9 2.6 27.6 14.9 30.1 3 .6 3.2.9 3.2 4.9s-.1 4.2-4.1 5.4c-2.3.7-6.1 3-8.4 5.2-7.6 7-9.4 17.4-4.8 26.8l2 4-2.8 2.7-2.8 2.6-4.3-2.1c-5.3-2.5-13.3-2.8-18.6-.6-5.5 2.3-10.9 8.2-12.8 13.7-1.5 4.6-1.7 4.8-5.4 4.8s-3.9-.2-5.4-4.8c-1.9-5.5-7.3-11.4-12.8-13.7-5.3-2.2-13.3-1.9-18.6.6l-4.3 2.1-2.8-2.6-2.8-2.7 1.9-3.9c6.1-12.3.3-27.3-12.3-31.7-4.8-1.7-4.9-1.9-4.9-5.9 0-3.9.2-4.2 3.2-4.8 12.5-2.5 20.1-18.2 14.8-30.4l-2.3-5.3 2.8-2.9 2.8-2.9 3.6 1.8c5.4 2.7 10.1 3.3 15.7 1.8 8.3-2.2 14.2-8.1 16.8-17 .4-1.2 1.6-1.7 4.6-1.7 3 0 4.2.5 4.6 1.7z"/><path d="M352 124.1c-7.9 3.2-13.1 10.3-13.9 19.3l-.6 6.1-15.9 9.1-15.9 9.2-4.7-2.4c-8.5-4.3-18.9-2.8-25.5 3.6l-3.1 3-13.7-3.9c-15.6-4.5-15.7-4.5-15.7-7.2 0-5.7-7.7-14.7-14.5-16.9-6.1-2-14.8-.9-19.7 2.6-6.2 4.3-10.1 12.2-9.6 19.5l.4 5.5-17.4 12.5-17.5 12.5-3.5-1.8c-7.5-3.8-19.4-1.5-25.4 4.8-8.3 8.9-7.6 24.1 1.5 32.1 10 8.8 25.9 6.5 33.4-4.9 2.3-3.3 2.8-5.5 3.1-11.4l.4-7.4 17.2-12.4 17.2-12.3 3.5 1.8c7 3.8 18.2 1.9 24.4-4.1l3.1-3 13.7 3.9c7.5 2.2 14 4.2 14.5 4.5.5.3 1.2 2.3 1.6 4.4.8 5.3 7.3 12.5 13.1 14.7 6.7 2.6 15.3 1.7 20.7-2.1 5.4-3.8 9.8-11.9 9.8-18.3v-4.6l16.1-9.2 16.1-9.1 4.6 2.4c5.3 2.9 13.3 3.2 19 .8 17.6-7.3 17.6-33.5 0-40.8-4.2-1.8-13-2-16.8-.5zm13.5 15.9c2.5 2.7 2.3 7.6-.3 10.2-2.5 2.6-7.6 2.7-10.3.2-2.4-2.1-2.5-8.1-.2-10.6s8.4-2.4 10.8.2zM227 160.8c1.1 1.3 2 3.2 2 4.2 0 2.3-3.5 6.6-5.8 7.2-3.1.9-8.1-1.8-8.8-4.6-1-4.2.4-7.6 3.8-9 3.9-1.7 6.3-1.1 8.8 2.2zm70.4 21.5c1.4 3.9-.3 7.8-4 9.3-3.8 1.6-7.1.2-9.4-3.9-1.3-2.4-1.3-3 0-5.4 3.4-6 11.3-5.9 13.4 0zm-140.2 27.4c2.5 2.2 2.4 8.4-.1 10.7-2.7 2.5-7.8 2.4-10.3-.2-2.6-2.6-2.8-7.5-.3-10.2 2.2-2.5 8.1-2.7 10.7-.3z"/><path d="M92 132c-2 2-2 3.3-2 95.5s0 93.5 2 95.5 3.3 2 164 2 162 0 164-2c2.6-2.6 2.6-7.4 0-10-1.9-1.9-3.3-2-20-2h-18v-62c0-60.7 0-62-2-64-1.9-1.9-3.3-2-19.8-2-17.4 0-17.9.1-20 2.3l-2.2 2.3V311h-25v-41.4c0-40.3-.1-41.4-2.1-44l-2-2.6H291c-16 0-18 .2-20.1 1.9l-2.4 1.9-.3 42.1-.3 42.1h-23.8l-.3-52.1-.3-52.1-2.4-1.9c-2.1-1.7-4.1-1.9-20.1-1.9h-17.9l-2 2.6c-2.1 2.6-2.1 3.6-2.1 54V311h-25v-26.8c0-34.2 2.1-31.2-22.3-31.2-16.4 0-17.9.2-19.7 2-1.9 1.9-2 3.3-2 29v27h-25l-.2-88.4c-.3-85.3-.4-88.5-2.2-90.5-2.5-2.7-7.9-2.8-10.6-.1zm276 122.5V311h-15V198h15v56.5zm-139 10V311h-15v-93h15v46.5zm69 10V311h-15v-73h15v36.5zm-139 15V311h-15v-43h15v21.5zm89.8 96.5c-14.9 2.5-28 14.5-32.3 29.4-2.4 8.4-1.7 20.2 1.8 27.9 3.8 8.4 12.1 16.7 21 20.8 6.6 3.1 8 3.4 16.7 3.4s10.1-.3 16.7-3.4c8.9-4.1 17.2-12.4 21-20.8 5.2-11.6 4-27.7-2.8-38.5-6.3-9.8-15.2-15.9-26.8-18.4-7.3-1.5-8.4-1.5-15.3-.4zm15.3 15.6c6.7 2 14.8 9.7 16.7 16 1.8 6 1.5 15.2-.7 19.9-4 8.9-14.2 15.5-24.1 15.5-9.9 0-20.1-6.6-24.1-15.5-2.6-5.6-2.5-16.2.1-21.8 2.9-6.2 8.9-11.6 15.2-13.8 6.6-2.3 9.9-2.3 16.9-.3z"/></svg>